<mxfile host="app.diagrams.net" modified="2022-10-03T15:53:27.911Z" agent="5.0 (Windows NT 10.0; Win64; x64) AppleWebKit/537.36 (KHTML, like Gecko) Chrome/106.0.0.0 Safari/537.36" etag="ducL5QIGagtOVHtwUHYu" version="20.4.0" type="github">
  <diagram id="R2lEEEUBdFMjLlhIrx00" name="Page-1">
    <mxGraphModel dx="1341" dy="473" grid="1" gridSize="10" guides="1" tooltips="1" connect="1" arrows="1" fold="1" page="1" pageScale="1" pageWidth="850" pageHeight="1100" math="0" shadow="0" extFonts="Permanent Marker^https://fonts.googleapis.com/css?family=Permanent+Marker">
      <root>
        <mxCell id="0" />
        <mxCell id="1" parent="0" />
        <mxCell id="4G2UGiWn_ndSMlTfBSjo-1" value="Usuario" style="swimlane;childLayout=stackLayout;horizontal=1;startSize=30;horizontalStack=0;rounded=1;fontSize=14;fontStyle=0;strokeWidth=2;resizeParent=0;resizeLast=1;shadow=0;dashed=0;align=center;" vertex="1" parent="1">
          <mxGeometry x="40" y="120" width="160" height="90" as="geometry" />
        </mxCell>
        <mxCell id="4G2UGiWn_ndSMlTfBSjo-2" value="#usuario&#xa;+nombre&#xa;+telefono" style="align=left;strokeColor=none;fillColor=none;spacingLeft=4;fontSize=12;verticalAlign=top;resizable=0;rotatable=0;part=1;fontStyle=0" vertex="1" parent="4G2UGiWn_ndSMlTfBSjo-1">
          <mxGeometry y="30" width="160" height="60" as="geometry" />
        </mxCell>
        <mxCell id="4G2UGiWn_ndSMlTfBSjo-4" value="Contenido" style="swimlane;childLayout=stackLayout;horizontal=1;startSize=30;horizontalStack=0;rounded=1;fontSize=14;fontStyle=0;strokeWidth=2;resizeParent=0;resizeLast=1;shadow=0;dashed=0;align=center;" vertex="1" parent="1">
          <mxGeometry x="280" y="260" width="160" height="90" as="geometry" />
        </mxCell>
        <mxCell id="4G2UGiWn_ndSMlTfBSjo-5" value="#nombre&#xa;+duracion&#xa;+puntaje" style="align=left;strokeColor=none;fillColor=none;spacingLeft=4;fontSize=12;verticalAlign=top;resizable=0;rotatable=0;part=1;fontStyle=0" vertex="1" parent="4G2UGiWn_ndSMlTfBSjo-4">
          <mxGeometry y="30" width="160" height="60" as="geometry" />
        </mxCell>
        <mxCell id="4G2UGiWn_ndSMlTfBSjo-6" value="Película" style="swimlane;childLayout=stackLayout;horizontal=1;startSize=30;horizontalStack=0;rounded=1;fontSize=14;fontStyle=0;strokeWidth=2;resizeParent=0;resizeLast=1;shadow=0;dashed=0;align=center;" vertex="1" parent="1">
          <mxGeometry x="480" y="380" width="160" height="90" as="geometry" />
        </mxCell>
        <mxCell id="4G2UGiWn_ndSMlTfBSjo-7" value="+genero" style="align=left;strokeColor=none;fillColor=none;spacingLeft=4;fontSize=12;verticalAlign=top;resizable=0;rotatable=0;part=1;fontStyle=0" vertex="1" parent="4G2UGiWn_ndSMlTfBSjo-6">
          <mxGeometry y="30" width="160" height="60" as="geometry" />
        </mxCell>
        <mxCell id="4G2UGiWn_ndSMlTfBSjo-8" value="Capítulo Serie" style="swimlane;childLayout=stackLayout;horizontal=1;startSize=30;horizontalStack=0;rounded=1;fontSize=14;fontStyle=0;strokeWidth=2;resizeParent=0;resizeLast=1;shadow=0;dashed=0;align=center;" vertex="1" parent="1">
          <mxGeometry x="480" y="260" width="160" height="90" as="geometry" />
        </mxCell>
        <mxCell id="4G2UGiWn_ndSMlTfBSjo-10" value="Serie" style="swimlane;childLayout=stackLayout;horizontal=1;startSize=30;horizontalStack=0;rounded=1;fontSize=14;fontStyle=0;strokeWidth=2;resizeParent=0;resizeLast=1;shadow=0;dashed=0;align=center;" vertex="1" parent="1">
          <mxGeometry x="670" y="260" width="160" height="90" as="geometry" />
        </mxCell>
        <mxCell id="4G2UGiWn_ndSMlTfBSjo-11" value="#nombre&#xa;+puntaje" style="align=left;strokeColor=none;fillColor=none;spacingLeft=4;fontSize=12;verticalAlign=top;resizable=0;rotatable=0;part=1;fontStyle=0" vertex="1" parent="4G2UGiWn_ndSMlTfBSjo-10">
          <mxGeometry y="30" width="160" height="60" as="geometry" />
        </mxCell>
        <mxCell id="4G2UGiWn_ndSMlTfBSjo-12" value="Plataforma" style="swimlane;childLayout=stackLayout;horizontal=1;startSize=30;horizontalStack=0;rounded=1;fontSize=14;fontStyle=0;strokeWidth=2;resizeParent=0;resizeLast=1;shadow=0;dashed=0;align=center;" vertex="1" parent="1">
          <mxGeometry x="480" y="115" width="160" height="90" as="geometry" />
        </mxCell>
        <mxCell id="4G2UGiWn_ndSMlTfBSjo-13" value="#nombre&#xa;+url" style="align=left;strokeColor=none;fillColor=none;spacingLeft=4;fontSize=12;verticalAlign=top;resizable=0;rotatable=0;part=1;fontStyle=0" vertex="1" parent="4G2UGiWn_ndSMlTfBSjo-12">
          <mxGeometry y="30" width="160" height="60" as="geometry" />
        </mxCell>
        <mxCell id="4G2UGiWn_ndSMlTfBSjo-16" value="Suscripción" style="swimlane;childLayout=stackLayout;horizontal=1;startSize=30;horizontalStack=0;rounded=1;fontSize=14;fontStyle=0;strokeWidth=2;resizeParent=0;resizeLast=1;shadow=0;dashed=0;align=center;" vertex="1" parent="1">
          <mxGeometry x="280" y="115" width="160" height="100" as="geometry" />
        </mxCell>
        <mxCell id="4G2UGiWn_ndSMlTfBSjo-17" value="#suscripción&#xa;+nombre_usuario&#xa;+contraseña&#xa;+fecha_venc" style="align=left;strokeColor=none;fillColor=none;spacingLeft=4;fontSize=12;verticalAlign=top;resizable=0;rotatable=0;part=1;fontStyle=0" vertex="1" parent="4G2UGiWn_ndSMlTfBSjo-16">
          <mxGeometry y="30" width="160" height="70" as="geometry" />
        </mxCell>
        <mxCell id="4G2UGiWn_ndSMlTfBSjo-20" value="Reseña" style="swimlane;childLayout=stackLayout;horizontal=1;startSize=30;horizontalStack=0;rounded=1;fontSize=14;fontStyle=0;strokeWidth=2;resizeParent=0;resizeLast=1;shadow=0;dashed=0;align=center;" vertex="1" parent="1">
          <mxGeometry x="210" y="400" width="160" height="80" as="geometry" />
        </mxCell>
        <mxCell id="4G2UGiWn_ndSMlTfBSjo-21" value="+comentario&#xa;+puntaje&#xa;" style="align=left;strokeColor=none;fillColor=none;spacingLeft=4;fontSize=12;verticalAlign=top;resizable=0;rotatable=0;part=1;" vertex="1" parent="4G2UGiWn_ndSMlTfBSjo-20">
          <mxGeometry y="30" width="160" height="50" as="geometry" />
        </mxCell>
      </root>
    </mxGraphModel>
  </diagram>
</mxfile>
